<svg width="155" height="48" viewBox="0 0 155 48" fill="none" xmlns="http://www.w3.org/2000/svg">
<g clip-path="url(#clip0_243_485)">
<mask id="mask0_243_485" style="mask-type:luminance" maskUnits="userSpaceOnUse" x="0" y="0" width="155" height="48">
<path d="M155 0H0V47.9498H155V0Z" fill="white"/>
</mask>
<g mask="url(#mask0_243_485)">
<path d="M71.8192 18.2559L75.4979 27.8455C76.3943 30.1716 77.1621 32.4975 77.7374 34.1862C78.3455 32.4975 79.1773 30.4898 80.1347 28.1639L84.0377 18.5743H84.1017L88.0047 28.1639C88.9645 30.4898 89.7962 32.4975 90.4021 34.1862C90.9781 32.4975 91.7459 30.1716 92.641 27.8455L96.3238 18.2559H99.6509L90.4065 41.5778H90.3425L85.3832 29.1202C84.9356 28.0047 84.4243 26.7626 84.072 25.6795C83.6876 26.7647 83.1762 28.0365 82.7599 29.1202L77.7999 41.5778H77.7359L68.4922 18.2559H71.8192Z" fill="black"/>
<path d="M104.902 17.873H104.966L115.587 41.195H112.324L110.056 36.101H99.7832L97.5443 41.1987H94.2812L104.902 17.873ZM108.933 33.5804C107.366 30.0759 106.182 27.3354 104.938 24.0856C103.658 27.3354 102.475 30.0759 100.907 33.5804H108.933Z" fill="black"/>
<path d="M126.59 17.873C133.181 17.873 138.395 23.0025 138.395 29.725C138.395 35.6511 134.428 40.3029 128.925 41.3542C131.613 43.6484 135.484 45.1777 138.651 45.1777C139.771 45.1777 141.114 45.0504 141.946 44.8276V47.5673C141.211 47.7903 139.771 47.9493 138.395 47.9493C133.788 47.9493 128.574 45.3687 125.342 41.5141C119.264 40.9403 114.785 36.0338 114.785 29.7214C114.785 23.098 119.904 17.873 126.59 17.873ZM126.59 38.7417C131.581 38.7417 135.26 34.9189 135.26 29.725C135.26 24.5312 131.581 20.7084 126.59 20.7084C121.598 20.7084 117.889 24.532 117.889 29.725C117.889 34.9182 121.599 38.7417 126.59 38.7417Z" fill="black"/>
<path d="M144.633 20.8358V28.4511H153.367V31.0317H144.633V41.1952H141.562V18.2559H155.001V20.8358H144.633Z" fill="black"/>
<path d="M76.7561 9.22921L68.9105 0.753698L68.824 0.68135H68.4922V13.9282H70.6387V5.58795L78.5524 14.1373H78.9025V0.888988H76.7561V9.22921ZM86.1916 0.679181L80.1578 13.9282H82.457L83.6847 11.1327H89.0138L90.2589 13.9282H92.5573L86.5279 0.679181H86.1916ZM84.5034 9.29215C85.1848 7.76418 85.7558 6.446 86.355 4.95131C86.929 6.41344 87.5014 7.74029 88.1943 9.29215H84.5034ZM91.0412 2.76423H94.8827V13.9282H97.0291V2.76423H100.889V0.888988H91.0428L91.0412 2.76423ZM102.91 13.9173H105.056V0.878859H102.91V13.9173ZM113.782 0.677734C110.023 0.677734 107.078 3.63385 107.078 7.40605C107.078 11.2405 109.96 14.1344 113.782 14.1344C117.604 14.1344 120.486 11.2405 120.486 7.40605C120.488 3.63531 117.543 0.679181 113.784 0.679181L113.782 0.677734ZM113.782 12.1202C111.152 12.1202 109.242 10.1379 109.242 7.40677C109.242 4.67565 111.152 2.69334 113.782 2.69334C116.413 2.69334 118.305 4.67565 118.305 7.40677C118.305 10.1379 116.405 12.1217 113.784 12.1217L113.782 12.1202ZM130.417 9.22632L122.572 0.751527L122.486 0.679181H122.153V13.9282H124.299V5.58795L132.212 14.1373H132.562V0.888988H130.415L130.417 9.22632ZM139.834 0.679181L133.8 13.9282H136.1L137.328 11.1327H142.657L143.902 13.9282H146.201L140.171 0.679181H139.834ZM138.147 9.29215C138.827 7.76635 139.398 6.44817 139.998 4.95131C140.573 6.41489 141.145 7.74101 141.838 9.29215H138.147ZM149.563 12.0522V0.888988H147.417V13.9282H155.001V12.0522H149.563Z" fill="black"/>
<path d="M25.6989 47.9498L24.6485 46.6966C24.5033 46.5224 21.0723 42.3559 21.0723 36.1527C21.0723 32.5187 22.2476 28.9333 24.1197 25.5285C23.0785 23.8597 21.9185 22.2675 20.6488 20.7638C19.3513 28.0353 19.2329 33.5577 19.2323 33.6206L19.1973 35.477L17.4292 34.8903C-1.86039 28.4832 0.0392336 3.04293 0.0603002 2.78611L0.243361 0.606272L2.13208 1.72838C2.77569 2.11182 11.5088 7.37511 19.0885 14.9861C20.7599 8.919 24.244 2.53723 24.408 2.24277L25.643 0L26.8271 2.27099C26.9861 2.57484 30.3865 9.13315 32.2027 15.1076C39.8085 7.43082 48.6287 2.11399 49.2752 1.72838L51.1639 0.606272L51.3463 2.78611C51.3673 3.04293 53.2669 28.4832 33.9781 34.8866L32.1147 35.5053L32.175 33.5518C32.175 33.4948 32.313 28.3725 30.7629 20.7631C29.4915 22.2685 28.3301 23.8627 27.2877 25.5337C29.1581 28.9383 30.3343 32.5231 30.3343 36.1557C30.3343 42.3638 26.8998 46.5261 26.753 46.7003L25.6989 47.9498ZM25.7026 28.4428C24.5177 30.9705 23.8139 33.5635 23.8139 36.1527C23.8139 39.2571 24.8584 41.7858 25.7026 43.3231C26.5482 41.7873 27.5913 39.258 27.5913 36.1527C27.5913 33.5635 26.8852 30.9699 25.7026 28.4428ZM2.73793 5.35372C2.79821 11.1907 4.19442 26.2968 16.5772 31.6449C16.8612 27.123 17.4532 22.6257 18.3489 18.1838C12.7307 12.2506 6.02357 7.51907 2.73793 5.35372ZM33.0142 18.2316C34.4139 24.3124 34.7932 29.0793 34.8876 31.6159C47.2369 26.2404 48.6171 11.1755 48.6695 5.35372C45.3765 7.52414 38.646 12.2752 33.0142 18.2316ZM21.323 17.3467C22.9158 19.0995 24.3793 20.9646 25.7018 22.9276C27.0027 20.9952 28.4407 19.1577 30.0045 17.4292C28.9991 13.4631 26.9107 8.74754 25.5842 5.94986C24.2628 8.66072 22.2288 13.2135 21.3571 17.1934C21.3455 17.2447 21.3346 17.2954 21.323 17.3467Z" fill="#00ACA6"/>
</g>
</g>
<defs>
<clipPath id="clip0_243_485">
<rect width="155" height="48" fill="white"/>
</clipPath>
</defs>
</svg>
